<?xml version="1.0" standalone="no"?>
<!DOCTYPE svg PUBLIC "-//W3C//DTD SVG 1.1//EN" "http://www.w3.org/Graphics/SVG/1.1/DTD/svg11.dtd">
<svg xmlns="http://www.w3.org/2000/svg" xmlns:inkscape="http://www.inkscape.org/namespaces/inkscape" xmlns:xlink="http://www.w3.org/1999/xlink" viewBox = "0 0 855 721" version = "1.1">
<!-- svg generated using QGIS www.qgis.org -->
<g id="daegu" inkscape:groupmode="layer" inkscape:label="daegu">
<g stroke="none" fill="rgb(0,0,0)" stroke-linejoin="round" stroke-width="0.26">
<g id="daegu_1" >
<path d="M 610,17 L 618,24 L 640,29 L 654,38 L 663,54 L 658,66 L 679,87 L 669,113 L 677,135 L 668,161 L 675,174 L 693,183 L 699,196 L 696,214 L 703,226 L 698,243 L 700,264 L 671,289 L 653,279 L 652,307 L 631,331 L 642,366 L 617,385 L 597,392 L 602,427 L 615,449 L 607,475 L 609,490 L 599,506 L 563,512 L 549,529 L 520,537 L 505,526 L 506,491 L 496,478 L 480,481 L 472,491 L 459,479 L 421,500 L 410,512 L 388,523 L 399,554 L 389,572 L 364,586 L 360,645 L 327,652 L 279,648 L 258,676 L 225,688 L 215,686 L 192,701 L 180,692 L 201,682 L 218,658 L 216,636 L 205,623 L 178,602 L 157,576 L 149,551 L 159,532 L 191,543 L 232,553 L 250,547 L 261,534 L 258,503 L 244,490 L 202,466 L 192,449 L 210,417 L 225,381 L 242,364 L 269,369 L 309,369 L 324,352 L 323,328 L 306,315 L 281,301 L 234,293 L 190,292 L 190,276 L 210,225 L 254,162 L 280,154 L 285,141 L 315,155 L 310,188 L 300,198 L 314,221 L 335,216 L 353,229 L 354,207 L 386,172 L 393,147 L 382,86 L 388,77 L 404,86 L 409,101 L 445,81 L 461,81 L 486,64 L 504,33 L 536,26 L 550,31 L 575,21 L 610,17 " />
</g>
</g>
</g>
<!-- QGIS extent for clipping, eg in Inkscape -->
<g id="qgisviewbox" inkscape:groupmode="layer" inkscape:label="qgisviewbox" stroke="rgb(255,0,0)" stroke-width="1" fill="none" >
<path d="M 0,719 L 853,719 L 853,0 L 0,0 L 0,719 " />
</g></svg>