<?xml version="1.0" standalone="no"?>
<!DOCTYPE svg PUBLIC "-//W3C//DTD SVG 1.1//EN" "http://www.w3.org/Graphics/SVG/1.1/DTD/svg11.dtd">
<svg xmlns="http://www.w3.org/2000/svg" xmlns:inkscape="http://www.inkscape.org/namespaces/inkscape" xmlns:xlink="http://www.w3.org/1999/xlink" viewBox = "0 0 855 721" version = "1.1">
<!-- svg generated using QGIS www.qgis.org -->
<g id="jeonnam" inkscape:groupmode="layer" inkscape:label="jeonnam">
<g stroke="none" fill="rgb(0,0,0)" stroke-linejoin="round" stroke-width="0.26">
<g id="jeonnam_1" >
<path d="M 332,672 L 313,689 L 304,691 L 296,683 L 300,667 L 310,662 L 332,672 " />
<path d="M 355,653 L 368,660 L 360,666 L 364,680 L 362,693 L 350,687 L 347,678 L 356,670 L 355,653 " />
<path d="M 455,646 L 467,662 L 464,676 L 451,676 L 442,668 L 439,661 L 447,649 L 455,646 " />
<path d="M 321,635 L 341,645 L 344,653 L 328,662 L 319,663 L 316,650 L 321,635 " />
<path d="M 105,592 L 111,599 L 125,596 L 124,610 L 114,606 L 107,610 L 97,600 L 105,592 " />
<path d="M 494,585 L 506,593 L 495,601 L 483,598 L 482,591 L 494,585 " />
<path d="M 432,576 L 437,582 L 446,579 L 450,591 L 434,604 L 431,593 L 420,588 L 432,576 " />
<path d="M 497,577 L 511,569 L 519,572 L 527,581 L 513,584 L 505,577 L 497,577 " />
<path d="M 213,555 L 216,566 L 207,570 L 206,559 L 213,555 " />
<path d="M 358,590 L 358,589 L 354,582 L 352,563 L 356,558 L 371,553 L 387,562 L 390,579 L 399,596 L 398,608 L 372,605 L 364,592 L 358,590 " />
<path d="M 477,549 L 476,564 L 466,576 L 444,568 L 447,555 L 453,553 L 471,560 L 477,549 " />
<path d="M 432,533 L 432,545 L 440,558 L 429,565 L 421,563 L 406,567 L 400,563 L 403,551 L 413,539 L 432,533 " />
<path d="M 519,526 L 525,528 L 531,543 L 516,545 L 514,530 L 519,526 " />
<path d="M 830,525 L 832,543 L 823,546 L 830,525 " />
<path d="M 687,518 L 694,524 L 708,524 L 720,531 L 721,539 L 702,550 L 703,540 L 696,530 L 689,530 L 687,518 " />
<path d="M 589,508 L 596,514 L 590,533 L 585,540 L 568,538 L 559,542 L 551,540 L 540,522 L 553,516 L 559,519 L 577,509 L 589,508 " />
<path d="M 689,484 L 696,488 L 689,501 L 701,502 L 702,514 L 681,509 L 687,500 L 681,494 L 689,484 " />
<path d="M 804,480 L 825,505 L 816,511 L 803,504 L 792,487 L 804,480 " />
<path d="M 770,464 L 779,471 L 771,479 L 762,470 L 770,464 " />
<path d="M 193,459 L 215,468 L 219,481 L 229,479 L 242,496 L 245,510 L 237,516 L 240,532 L 223,549 L 210,548 L 208,556 L 198,554 L 197,563 L 161,576 L 155,575 L 148,559 L 137,561 L 130,551 L 128,538 L 139,522 L 150,514 L 161,510 L 164,501 L 171,498 L 180,487 L 187,485 L 193,473 L 193,459 " />
<path d="M 114,437 L 121,439 L 129,449 L 133,461 L 131,475 L 116,485 L 116,475 L 121,460 L 114,437 " />
<path d="M 31,436 L 34,449 L 27,454 L 20,444 L 31,436 " />
<path d="M 98,435 L 107,437 L 105,447 L 116,457 L 116,466 L 103,469 L 97,459 L 95,449 L 98,435 " />
<path d="M 154,417 L 168,428 L 163,442 L 150,443 L 142,438 L 139,427 L 154,417 " />
<path d="M 803,390 L 810,391 L 814,410 L 826,423 L 828,441 L 823,454 L 824,464 L 807,460 L 802,451 L 791,445 L 802,426 L 812,414 L 810,403 L 803,390 " />
<path d="M 77,384 L 88,393 L 96,408 L 83,415 L 65,417 L 57,411 L 57,396 L 70,391 L 77,384 " />
<path d="M 129,366 L 143,368 L 147,375 L 162,379 L 164,400 L 154,401 L 148,389 L 125,393 L 121,384 L 129,366 " />
<path d="M 90,350 L 91,372 L 83,376 L 71,373 L 66,378 L 67,391 L 58,394 L 46,383 L 51,368 L 67,364 L 90,350 " />
<path d="M 153,348 L 158,358 L 160,370 L 150,373 L 144,363 L 145,355 L 153,348 " />
<path d="M 140,313 L 153,317 L 153,334 L 139,341 L 140,353 L 132,350 L 118,331 L 126,324 L 140,328 L 140,313 " />
<path d="M 795,309 L 805,312 L 806,321 L 789,322 L 786,311 L 795,309 " />
<path d="M 216,294 L 226,310 L 224,324 L 239,324 L 244,332 L 239,347 L 228,345 L 229,331 L 200,326 L 216,308 L 208,300 L 216,294 " />
<path d="M 187,286 L 196,287 L 196,295 L 189,300 L 183,292 L 187,286 " />
<path d="M 130,302 L 133,309 L 127,320 L 109,330 L 103,320 L 96,323 L 88,316 L 100,299 L 116,298 L 118,288 L 126,289 L 130,302 " />
<path d="M 800,282 L 803,292 L 813,292 L 821,300 L 821,314 L 812,310 L 812,303 L 789,301 L 789,293 L 800,282 " />
<path d="M 813,279 L 815,291 L 806,291 L 803,283 L 813,279 " />
<path d="M 150,242 L 160,246 L 167,258 L 165,268 L 152,270 L 148,254 L 150,242 " />
<path d="M 154,226 L 163,227 L 173,241 L 155,238 L 154,226 " />
<path d="M 156,182 L 144,189 L 141,223 L 133,229 L 114,214 L 115,203 L 130,199 L 143,185 L 156,182 " />
<path d="M 672,481 L 674,495 L 666,503 L 655,504 L 634,523 L 615,515 L 616,506 L 605,496 L 580,490 L 556,494 L 546,483 L 548,475 L 560,464 L 571,459 L 571,443 L 583,442 L 577,454 L 579,465 L 591,463 L 602,443 L 594,429 L 599,408 L 609,400 L 618,411 L 615,421 L 629,424 L 637,399 L 635,381 L 625,382 L 618,389 L 607,390 L 599,375 L 586,388 L 581,404 L 573,411 L 559,410 L 554,405 L 545,417 L 528,425 L 522,435 L 513,441 L 498,445 L 502,452 L 496,475 L 484,490 L 489,498 L 485,508 L 491,516 L 469,529 L 449,527 L 450,538 L 434,528 L 420,527 L 413,517 L 417,512 L 414,487 L 416,471 L 407,457 L 402,504 L 393,511 L 397,519 L 388,532 L 376,534 L 369,541 L 356,543 L 343,553 L 340,561 L 344,574 L 338,579 L 335,597 L 318,592 L 312,602 L 301,605 L 305,588 L 303,573 L 294,574 L 284,564 L 292,549 L 302,546 L 298,533 L 285,539 L 277,529 L 282,525 L 277,515 L 284,501 L 279,488 L 261,477 L 255,484 L 248,473 L 228,467 L 206,454 L 209,440 L 201,435 L 196,420 L 204,391 L 210,374 L 218,380 L 227,388 L 237,407 L 242,405 L 249,389 L 248,370 L 276,364 L 273,355 L 256,363 L 243,364 L 236,356 L 259,329 L 252,310 L 258,300 L 248,270 L 242,284 L 243,295 L 229,297 L 218,277 L 216,267 L 234,270 L 240,259 L 233,257 L 253,244 L 249,231 L 238,236 L 235,220 L 225,211 L 222,229 L 211,225 L 200,229 L 206,238 L 195,249 L 188,243 L 190,233 L 185,226 L 174,229 L 161,221 L 160,206 L 172,199 L 200,209 L 194,199 L 202,183 L 220,187 L 230,182 L 236,187 L 229,202 L 231,210 L 244,220 L 260,227 L 259,243 L 268,241 L 267,232 L 276,227 L 283,205 L 265,201 L 259,188 L 253,185 L 240,164 L 239,156 L 217,151 L 218,139 L 227,130 L 232,115 L 246,115 L 250,93 L 262,64 L 262,49 L 275,43 L 292,48 L 297,54 L 293,68 L 307,83 L 306,91 L 312,104 L 319,101 L 335,105 L 332,96 L 342,90 L 358,98 L 367,83 L 375,86 L 383,76 L 393,70 L 393,62 L 402,44 L 400,34 L 407,26 L 438,25 L 461,36 L 465,51 L 475,62 L 493,59 L 491,46 L 508,31 L 517,27 L 519,44 L 524,47 L 518,70 L 531,77 L 521,100 L 549,110 L 570,94 L 589,101 L 592,92 L 607,103 L 619,103 L 628,107 L 646,99 L 662,106 L 677,81 L 693,77 L 704,80 L 718,92 L 733,101 L 744,125 L 750,128 L 754,142 L 753,159 L 756,168 L 766,179 L 777,185 L 784,195 L 785,206 L 803,227 L 813,231 L 821,248 L 820,263 L 809,277 L 792,286 L 785,298 L 775,293 L 766,303 L 748,306 L 742,320 L 758,338 L 771,343 L 779,335 L 795,328 L 801,330 L 813,326 L 818,329 L 814,353 L 805,370 L 809,376 L 808,389 L 801,388 L 789,397 L 776,384 L 769,384 L 756,408 L 762,438 L 742,431 L 734,435 L 726,425 L 731,418 L 726,412 L 725,400 L 743,385 L 737,376 L 729,354 L 715,350 L 723,337 L 716,335 L 711,319 L 701,321 L 702,334 L 671,341 L 664,349 L 658,370 L 664,377 L 653,386 L 663,404 L 683,422 L 695,428 L 708,454 L 707,459 L 695,469 L 678,462 L 665,462 L 662,466 L 672,481 " />
<path d="M 262,382 L 254,385 L 249,401 L 256,402 L 263,412 L 269,405 L 278,405 L 277,417 L 268,423 L 284,434 L 303,439 L 300,425 L 304,417 L 292,398 L 289,385 L 276,389 L 262,382 " />
<path d="M 276,443 L 270,442 L 262,421 L 253,418 L 257,408 L 246,399 L 240,415 L 229,412 L 238,429 L 244,445 L 264,456 L 275,460 L 276,443 " />
<path d="M 424,231 L 449,221 L 463,217 L 469,212 L 476,221 L 497,211 L 496,205 L 507,195 L 505,181 L 511,173 L 502,164 L 491,166 L 482,146 L 474,133 L 464,130 L 423,149 L 402,140 L 395,133 L 381,154 L 375,150 L 368,161 L 368,173 L 362,174 L 360,197 L 374,203 L 394,204 L 405,212 L 410,231 L 424,231 " />
</g>
</g>
</g>
<!-- QGIS extent for clipping, eg in Inkscape -->
<g id="qgisviewbox" inkscape:groupmode="layer" inkscape:label="qgisviewbox" stroke="rgb(255,0,0)" stroke-width="1" fill="none" >
<path d="M 0,718 L 853,718 L 853,0 L 0,0 L 0,718 " />
</g></svg>