<?xml version="1.0" standalone="no"?>
<!DOCTYPE svg PUBLIC "-//W3C//DTD SVG 1.1//EN" "http://www.w3.org/Graphics/SVG/1.1/DTD/svg11.dtd">
<svg xmlns="http://www.w3.org/2000/svg" xmlns:inkscape="http://www.inkscape.org/namespaces/inkscape" xmlns:xlink="http://www.w3.org/1999/xlink" viewBox = "0 0 855 721" version = "1.1">
<!-- svg generated using QGIS www.qgis.org -->
<g id="incheon" inkscape:groupmode="layer" inkscape:label="incheon">
</g>
<g id="jeju" inkscape:groupmode="layer" inkscape:label="jeju">
<g stroke="none" fill="rgb(0,0,0)" stroke-linejoin="round" stroke-width="0.26">
<g id="jeju_1" >
<path d="M 815,190 L 832,220 L 809,227 L 803,212 L 815,190 " />
<path d="M 630,142 L 670,151 L 723,189 L 755,187 L 775,215 L 763,242 L 783,257 L 786,275 L 767,348 L 741,359 L 729,392 L 707,415 L 707,432 L 689,450 L 636,449 L 603,482 L 578,483 L 536,494 L 512,492 L 499,506 L 458,532 L 448,523 L 378,526 L 367,537 L 329,542 L 319,527 L 291,533 L 268,518 L 228,535 L 185,523 L 152,548 L 147,565 L 127,576 L 93,528 L 61,516 L 41,500 L 20,460 L 27,431 L 23,407 L 42,381 L 59,374 L 83,344 L 94,345 L 123,312 L 124,290 L 167,271 L 175,251 L 199,254 L 247,228 L 270,232 L 315,218 L 357,191 L 373,197 L 448,186 L 459,172 L 497,174 L 510,159 L 526,166 L 592,146 L 630,142 " />
</g>
</g>
</g>
<!-- QGIS extent for clipping, eg in Inkscape -->
<g id="qgisviewbox" inkscape:groupmode="layer" inkscape:label="qgisviewbox" stroke="rgb(255,0,0)" stroke-width="1" fill="none" >
<path d="M 0,719 L 853,719 L 853,0 L 0,0 L 0,719 " />
</g></svg>