<?xml version="1.0" standalone="no"?>
<!DOCTYPE svg PUBLIC "-//W3C//DTD SVG 1.1//EN" "http://www.w3.org/Graphics/SVG/1.1/DTD/svg11.dtd">
<svg xmlns="http://www.w3.org/2000/svg" xmlns:inkscape="http://www.inkscape.org/namespaces/inkscape" xmlns:xlink="http://www.w3.org/1999/xlink" viewBox = "0 0 855 721" version = "1.1">
<!-- svg generated using QGIS www.qgis.org -->
<g id="kyungnam" inkscape:groupmode="layer" inkscape:label="kyungnam">
</g>
<g id="sejong" inkscape:groupmode="layer" inkscape:label="sejong">
<g stroke="none" fill="rgb(0,0,0)" stroke-linejoin="round" stroke-width="0.26">
<g id="sejong_1" >
<path d="M 272,303 L 263,305 L 245,287 L 233,282 L 232,262 L 224,255 L 235,236 L 237,214 L 229,201 L 231,186 L 242,178 L 239,167 L 232,161 L 239,143 L 248,131 L 244,106 L 223,105 L 214,109 L 209,92 L 198,71 L 187,69 L 209,50 L 216,49 L 224,31 L 237,28 L 241,17 L 261,18 L 265,25 L 283,23 L 288,27 L 305,27 L 317,33 L 317,42 L 340,53 L 358,69 L 367,68 L 372,77 L 391,97 L 396,93 L 407,103 L 420,103 L 434,96 L 441,105 L 457,107 L 473,117 L 482,117 L 492,124 L 487,154 L 472,172 L 460,172 L 447,202 L 437,213 L 444,227 L 466,223 L 465,245 L 472,246 L 481,281 L 489,293 L 486,317 L 478,323 L 485,332 L 515,332 L 525,348 L 541,361 L 541,376 L 558,372 L 565,377 L 581,377 L 594,369 L 611,376 L 606,381 L 620,407 L 621,421 L 641,424 L 651,421 L 663,448 L 661,460 L 651,459 L 664,488 L 662,508 L 665,518 L 642,526 L 621,508 L 594,533 L 582,528 L 576,544 L 587,561 L 573,584 L 578,601 L 573,613 L 553,628 L 546,643 L 548,654 L 523,672 L 515,669 L 506,676 L 495,666 L 475,670 L 463,685 L 436,689 L 419,683 L 409,686 L 406,701 L 392,699 L 375,680 L 351,672 L 350,662 L 338,647 L 320,642 L 310,630 L 310,615 L 316,594 L 313,582 L 305,580 L 297,571 L 292,551 L 297,547 L 299,530 L 280,522 L 273,525 L 263,509 L 267,500 L 257,488 L 263,476 L 278,464 L 267,447 L 262,431 L 264,419 L 272,412 L 283,416 L 294,411 L 285,397 L 298,371 L 314,366 L 321,344 L 309,334 L 298,338 L 290,325 L 272,303 " />
</g>
</g>
</g>
<!-- QGIS extent for clipping, eg in Inkscape -->
<g id="qgisviewbox" inkscape:groupmode="layer" inkscape:label="qgisviewbox" stroke="rgb(255,0,0)" stroke-width="1" fill="none" >
<path d="M 0,719 L 853,719 L 853,0 L 0,0 L 0,719 " />
</g></svg>